<svg xmlns:xlink="http://www.w3.org/1999/xlink" xmlns="http://www.w3.org/2000/svg" class="css-ze2te4 css-qd6ojx" viewBox="0 0 80 80.03554213498313" width="110"  height="110" ><g transform="translate(-7.386643469047958, -7.340943901937281) scale(3.384979993829356)" class="css-lgydgl" fill="#66C6BA"><title xmlns="http://www.w3.org/2000/svg">icon_966Artboard 1</title><path xmlns="http://www.w3.org/2000/svg" d="M24.873,10.046l-1.3-.618c2.224-3.769,2.243-6.07,2.243-6.07a15.766,15.766,0,0,0-6.011.262L20.8,2.25A9.436,9.436,0,0,0,12.42,5.44l.446-2.02A8.785,8.785,0,0,0,8,7.045L7.9,5.7a9.249,9.249,0,0,0-3.408,6.232L3.907,9.515s-3.995,6.169.175,12.18a31.28,31.28,0,0,1,2.436-3.678,27.8,27.8,0,0,1,.253-7.424,46.925,46.925,0,0,0,.5,6.46A39.3,39.3,0,0,1,9.89,14.109a27.139,27.139,0,0,1,.607-6.73,39.717,39.717,0,0,0,.087,6.044,35.121,35.121,0,0,1,2.758-2.4,20.956,20.956,0,0,1,1.572-5.369,31.926,31.926,0,0,0-.857,4.828,29.352,29.352,0,0,1,5.472-3.212,22.94,22.94,0,0,0-5.012,3.662,32.031,32.031,0,0,0,4.944.013,20.97,20.97,0,0,1-5.579.6c-.96.944-1.865,1.937-2.7,2.926a41.393,41.393,0,0,0,6.717-.61,27.887,27.887,0,0,1-7.38,1.417c-.8,1-1.53,1.971-2.16,2.861a47.749,47.749,0,0,0,6.759-.218A27.807,27.807,0,0,1,7.765,19C6.55,20.779,4.2,24.665,3.551,25.813H5.162c.574-1.135,1.166-2.2,1.762-3.229a15.55,15.55,0,0,0,11.516-2.132l-2.088-1.176c3-.341,6.289-3.851,6.289-3.851l-1.589-.064A17.719,17.719,0,0,0,24.873,10.046Z" fill="#66C6BA"></path></g></svg>