<svg xmlns:dc="http://purl.org/dc/elements/1.1/" xmlns:cc="http://creativecommons.org/ns#" xmlns:rdf="http://www.w3.org/1999/02/22-rdf-syntax-ns#" xmlns:svg="http://www.w3.org/2000/svg" xmlns="http://www.w3.org/2000/svg" xmlns:xlink="http://www.w3.org/1999/xlink" id="svg12087" version="1.1" viewBox="465.8 325.2 92.41 117.61">  <metadata id="metadata12093" fill="#FFFFFF">    <rdf:rdf fill="#FFFFFF">      <cc:work rdf:about="" fill="#FFFFFF">        <dc:format fill="#FFFFFF">image/svg+xml</dc:format>        <dc:type rdf:resource="http://purl.org/dc/dcmitype/StillImage" fill="#FFFFFF"></dc:type>      </cc:work>    </rdf:rdf>  </metadata>  <defs id="defs12091"></defs>  <linearGradient spreadMethod="pad" y2="30%" x2="-10%" y1="120%" x1="30%" id="3d_gradient2-logo-8f9bca59-81ea-40df-9995-f6fb62d2e596" fill="#FFFFFF">    <stop id="stop12068" stop-opacity="1" stop-color="#ffffff" offset="0%" fill="#FFFFFF"></stop>    <stop id="stop12070" stop-opacity="1" stop-color="#000000" offset="100%" fill="#FFFFFF"></stop>  </linearGradient>  <linearGradient gradientTransform="rotate(-30)" spreadMethod="pad" y2="30%" x2="-10%" y1="120%" x1="30%" id="3d_gradient3-logo-8f9bca59-81ea-40df-9995-f6fb62d2e596" fill="#FFFFFF">    <stop id="stop12073" stop-opacity="1" stop-color="#ffffff" offset="0%" fill="#FFFFFF"></stop>    <stop id="stop12075" stop-opacity="1" stop-color="#cccccc" offset="50%" fill="#FFFFFF"></stop>    <stop id="stop12077" stop-opacity="1" stop-color="#000000" offset="100%" fill="#FFFFFF"></stop>  </linearGradient>  <g id="logo-group" fill="#FFFFFF">    <image xlink:href="" id="container" x="272" y="144" width="480" height="480" style="display: none;" transform="translate(0 0)" fill="#FFFFFF"></image>    <g id="logo-center" transform="translate(415.8 0)" fill="#FFFFFF">      <image xlink:href="" id="icon_container" style="display: none;" x="0" y="0" fill="#FFFFFF"></image>      <g id="slogan" style="font-style:normal;font-weight:normal;font-size:32px;line-height:1;font-family:'Brandmark Sans 2 Color';font-variant-ligatures:none;text-align:center;text-anchor:middle" transform="translate(0 0)" fill="#FFFFFF"></g>      <g id="title" style="font-style:normal;font-weight:normal;font-size:72px;line-height:1;font-family:'Brandmark Sans 2 Color';font-variant-ligatures:normal;text-align:center;text-anchor:middle" transform="translate(0 0)" fill="#FFFFFF">        <g id="path12096" aria-label="^P" transform="translate(0 342.4) translate(50 -17.20000000000001) scale(2.3333333333333335) translate(-493.06344 50.4)" fill="#FFFFFF"> <path class="c1" d="M119.6582,91.50342c0,3.95996-0.79199,7.20068-2.30469,9.79248c0.14453-1.08008,0.2168-2.44824,0-3.95996 c-0.14355-1.0083-0.35938-4.82471-3.8877-8.35303c-5.1123-5.04053-12.38574-4.82422-13.39355-4.82422h-8.71289v15.40918h8.71289 c5.18457,0,8.35254-1.80029,8.92871-6.26465c3.3125,4.17676,2.16016,11.59326-1.51172,13.89795 c-1.94434,1.22363-3.52832,1.43945-5.1123,1.51172c-0.50488,0-1.00879,0-1.58496,0h-9.28809v16.48926H80.19824v-50.4043h20.59375 c12.09766,0,19.00977,5.40039,19.00977,16.48926L119.6582,91.50342z" transform="translate(412.8652 -125.19785)" stroke-width="0px" stroke-linejoin="miter" stroke-miterlimit="2" fill="#57585C" stroke="#57585C"></path> </g>       </g>      <image xlink:href="" id="icon" style="display: none;" x="0" y="0" fill="#FFFFFF"></image>    </g>  </g></svg>