<svg xmlns:dc="http://purl.org/dc/elements/1.1/" xmlns:cc="http://creativecommons.org/ns#" xmlns:rdf="http://www.w3.org/1999/02/22-rdf-syntax-ns#" xmlns:svg="http://www.w3.org/2000/svg" xmlns="http://www.w3.org/2000/svg" xmlns:xlink="http://www.w3.org/1999/xlink" id="svg181960" version="1.1" viewBox="65.53 324.02 892.94 119.96">
  <metadata id="metadata181966" fill="#FFFFFF">
    <rdf:rdf fill="#FFFFFF">
      <cc:work rdf:about="" fill="#FFFFFF">
        <dc:format fill="#FFFFFF">image/svg+xml</dc:format>
        <dc:type rdf:resource="http://purl.org/dc/dcmitype/StillImage" fill="#FFFFFF"/>
      </cc:work>
    </rdf:rdf>
  </metadata>
  <defs id="defs181964"/>
  <linearGradient spreadMethod="pad" y2="30%" x2="-10%" y1="120%" x1="30%" id="3d_gradient2-logo-8f9bca59-81ea-40df-9995-f6fb62d2e596" fill="#FFFFFF">
    <stop id="stop181941" stop-opacity="1" stop-color="#ffffff" offset="0%" fill="#FFFFFF"/>
    <stop id="stop181943" stop-opacity="1" stop-color="#000000" offset="100%" fill="#FFFFFF"/>
  </linearGradient>
  <linearGradient gradientTransform="rotate(-30)" spreadMethod="pad" y2="30%" x2="-10%" y1="120%" x1="30%" id="3d_gradient3-logo-8f9bca59-81ea-40df-9995-f6fb62d2e596" fill="#FFFFFF">
    <stop id="stop181946" stop-opacity="1" stop-color="#ffffff" offset="0%" fill="#FFFFFF"/>
    <stop id="stop181948" stop-opacity="1" stop-color="#cccccc" offset="50%" fill="#FFFFFF"/>
    <stop id="stop181950" stop-opacity="1" stop-color="#000000" offset="100%" fill="#FFFFFF"/>
  </linearGradient>
  <g id="logo-group" fill="#FFFFFF">
    <image xlink:href="" id="container" x="272" y="144" width="480" height="480" style="display: none;" transform="translate(0 0)" fill="#FFFFFF"/>
    <g id="logo-center" transform="translate(15.532264999999768 0)" fill="#FFFFFF">
      <image xlink:href="" id="icon_container" style="display: none;" x="0" y="0" fill="#FFFFFF"/>
      <g id="slogan" style="font-style:normal;font-weight:normal;font-size:32px;line-height:1;font-family:'Brandmark Sans 2 Color';font-variant-ligatures:none;text-align:center;text-anchor:middle" transform="translate(0 0)" fill="#FFFFFF"/>
      <g id="title" style="font-style:normal;font-weight:normal;font-size:72px;line-height:1;font-family:'Brandmark Sans 2 Color';font-variant-ligatures:normal;text-align:center;text-anchor:middle" transform="translate(0 0)" fill="#FFFFFF">
        <g id="path181969" aria-label="P" transform="translate(0 341.896) translate(50 -16.696000000000005) scale(2.3333333333333335) translate(-336.26656 50.4)" fill="#FFFFFF"> <path class="c1" d="M119.80176,91.28711c0,11.7373-6.91211,17.42578-19.00977,17.42578h-9.28809v16.48926H80.19824v-50.4043 h20.59375C112.88965,74.79785,119.80176,80.19824,119.80176,91.28711z M109.2168,91.71924 c0-5.54443-3.24023-7.63281-9.07227-7.63281h-8.71289v15.40967h8.71289C105.90527,99.49609,109.2168,97.33594,109.2168,91.71924z" transform="translate(256.06832 -125.19785)" stroke-width="0px" stroke-linejoin="miter" stroke-miterlimit="2" fill="#57585C" stroke="#57585C"/> </g>
        <g id="path181971" aria-label="R" transform="translate(0 341.896) translate(168.43096999999992 -16.86400000000001) scale(2.3333333333333335) translate(-383.02269 50.472)" fill="#FFFFFF"> <path class="c1" d="M120.12549,125.20215h-12.74512l-8.92871-16.48926H91.1792v16.48926H79.87451v-50.4043h20.59375 c12.09668,0,19.00977,5.40088,19.00977,16.48975c0,8.49658-3.60059,13.8252-10.15332,16.12939L120.12549,125.20215z M108.89307,91.71973c0-5.54492-3.24023-7.63281-9.07324-7.63281h-8.71289v15.40918h8.71289 C105.58057,99.49609,108.89307,97.33594,108.89307,91.71973z" transform="translate(303.14818 -125.26985)" stroke-width="0px" stroke-linejoin="miter" stroke-miterlimit="2" fill="#57585C" stroke="#57585C"/> </g>
        <g id="path181973" aria-label="I" transform="translate(0 341.896) translate(289.82291666666663 -16.696000000000005) scale(2.3333333333333335) translate(-431.04781 50.4)" fill="#FFFFFF"> <path class="c1" d="M94.34717,125.20215v-50.4043h11.30566v50.4043H94.34717z" transform="translate(336.70064 -125.19785)" stroke-width="0px" stroke-linejoin="miter" stroke-miterlimit="2" fill="#57585C" stroke="#57585C"/> </g>
        <g id="path181975" aria-label="C" transform="translate(0 341.896) translate(343.6552499999999 -17.872000000000007) scale(2.3333333333333335) translate(-450.11881 50.904)" fill="#FFFFFF"> <path class="c1" d="M102.19629,115.8418c4.89648,0,9.57617-2.44824,12.52832-6.33691l10.36914,4.6084 c-4.75195,7.05664-13.10449,11.59277-23.04199,11.59277c-15.55273,0-27.29004-11.08887-27.29004-25.84961 c0-14.5459,11.7373-25.5625,27.29004-25.5625c10.00879,0,18.43359,4.53613,23.18652,11.59277l-10.44141,4.68066 c-2.95215-3.88867-7.63281-6.33691-12.60059-6.33691c-8.4248,0-16.12988,6.9126-16.12988,15.76953 c0,8.78516,7.77734,15.91406,16.05762,15.91406L102.19629,115.8418z" transform="translate(375.35709 -125.19795)" stroke-width="0px" stroke-linejoin="miter" stroke-miterlimit="2" fill="#57585C" stroke="#57585C"/> </g>
        <g id="path181977" aria-label="E" transform="translate(0 341.896) translate(486.33333333333337 -16.360000000000007) scale(2.3333333333333335) translate(-507.26656 50.256)" fill="#FFFFFF"> <path class="c1" d="M118.82959,115.9856v9.2168H81.17041V74.79761h36.86719v9.2168H92.40381v31.89893L118.82959,115.9856z M99.46045,104.60864l1.2959-9.21729h14.83301v9.21729H99.46045z" transform="translate(426.09615 -125.05361)" stroke-width="0px" stroke-linejoin="miter" stroke-miterlimit="2" fill="#57585C" stroke="#57585C"/> </g>
        <g id="path181979" aria-label="^N" transform="translate(0 341.896) translate(602.9635533333335 -16.696000000000005) scale(2.3333333333333335) translate(-553.25094 50.4)" fill="#FFFFFF"> <polygon class="c1" points="88.22705,74.79785 121.854,125.20215 110.26123,125.20215 88.65967,92.36719 88.65967,125.20215 78.146,125.20215 78.146,74.79785 " transform="translate(475.10494 -125.19785)" stroke-width="0px" stroke-linejoin="miter" stroke-miterlimit="2" fill="#57585C" stroke="#57585C"/> <path class="c3" d="M121.854,74.79785v38.95508c-7.05664-4.32031-9.86426-12.60107-10.44043-14.61719V74.79785H121.854z" transform="translate(475.10494 -125.19785)" stroke-width="0px" stroke-linejoin="miter" stroke-miterlimit="2" fill="#9C8F51" stroke="#9C8F51"/> </g>
        <g id="path181981" aria-label="^E" transform="translate(0 341.896) translate(737.4805000000003 -16.528000000000013) scale(2.3333333333333335) translate(-606.90106 50.328)" fill="#FFFFFF"> <polygon class="c1" points="118.82959,115.9856 118.82959,125.20239 81.17041,125.20239 81.17041,74.79761 118.0376,74.79761 118.0376,84.0144 92.40381,84.0144 92.40381,115.91333 " transform="translate(525.73065 -125.12561)" stroke-width="0px" stroke-linejoin="miter" stroke-miterlimit="2" fill="#57585C" stroke="#57585C"/> <polygon class="c3" points="99.46045,104.60864 101.75635,95.39136 115.58936,95.39136 115.58936,104.60864 " transform="translate(525.73065 -125.12561)" stroke-width="0px" stroke-linejoin="miter" stroke-miterlimit="2" fill="#9C8F51" stroke="#9C8F51"/> </g>
        <g id="path181983" aria-label="^T" transform="translate(0 341.896) translate(848.6874700000004 -16.696000000000005) scale(2.3333333333333335) translate(-650.56119 50.4)" fill="#FFFFFF"> <rect x="79.80225" y="74.79785" class="c3" width="40.39551" height="9.50488" transform="translate(570.758936 -125.197852)" stroke-width="0px" stroke-linejoin="miter" stroke-miterlimit="2" fill="#9C8F51" stroke="#9C8F51"/> <path class="c1" d="M94.2749,89.99121c5.25684-4.17627,11.2334,0,11.2334,0v35.21094H94.20361V89.99121H94.2749z" transform="translate(570.758936 -125.197852)" stroke-width="0px" stroke-linejoin="miter" stroke-miterlimit="2" fill="#57585C" stroke="#57585C"/> </g>
              </g>
      <image xlink:href="" id="icon" style="display: none;" x="0" y="0" fill="#FFFFFF"/>
    </g>
  </g>
</svg>